# xmcd CD database file
#
# Track frame offsets:
#	150
#	18640
#	39257
#	52082
#	68471
#	81150
#	94595
#	108920
#	119902
#	140411
#	150785
#	166780
#	184478
#	199251
#	224162
#	241228
#	257306
#	270543
#
# Disc length: 3770 seconds
#
# Revision: 0
# Processed by: cddbd v1.5.2PL0 Copyright (c) Steve Scherf et al.
# Submitted via: CDex 1.70beta2
#
DISCID=f70eb812
DTITLE=Various Artist - Greatest Ever Country Rock - 3
DYEAR=1900
DGENRE=Country
TTITLE0=Me And Bobby McGee
TTITLE1=The Road Goes On Forever
TTITLE2=Morning Sky
TTITLE3=Hot Burrito #1
TTITLE4=Harlem River Blues
TTITLE5=I Am Not Willing
TTITLE6=Had A Dream (For The Heart)
TTITLE7=I Don't Know You
TTITLE8=Willpower
TTITLE9=The Little Girl's Gone Rockin'
TTITLE10=Survivor Blues
TTITLE11=Behind Me Now
TTITLE12=Ashes Of Love
TTITLE13=Mandolin Wind
TTITLE14=Garden Party
TTITLE15=North Central Plain
TTITLE16=Down To The River To Pray
TTITLE17=Don't It Make My Brown Eyes Blue
EXTD=
EXTT0=
EXTT1=
EXTT2=
EXTT3=
EXTT4=
EXTT5=
EXTT6=
EXTT7=
EXTT8=
EXTT9=
EXTT10=
EXTT11=
EXTT12=
EXTT13=
EXTT14=
EXTT15=
EXTT16=
EXTT17=
PLAYORDER=
